<?xml version="1.0" encoding="UTF-8"?>
<svg id="Layer_1" data-name="Layer 1" xmlns="http://www.w3.org/2000/svg" viewBox="0 0 154 154">
  <defs>
    <style>
      .cls-1 {
        fill: #75e699;
      }
    </style>
  </defs>
  <path class="cls-1" d="m77,0C34.54,0,0,34.54,0,77s34.54,77,77,77,77-34.54,77-77S119.46,0,77,0Zm1.44,135.98c-.06,0-.13.01-.19,0-.06.01-.11.01-.17.01-5.89-5.59-10.95-12.04-14.96-19.12-6.95-12.26-10.63-26.24-10.63-40.42,0-13.24,3.06-25.89,9.09-37.58,3.96-7.7,9.18-14.77,15.36-20.87h.36c32.39.16,58.7,26.57,58.7,59s-25.69,58.22-57.56,58.98Z"/>
</svg>